<mxfile host="app.diagrams.net" modified="2021-06-03T06:49:25.976Z" agent="5.0 (Macintosh; Intel Mac OS X 10_15_7) AppleWebKit/537.36 (KHTML, like Gecko) Chrome/90.0.4430.212 Safari/537.36" etag="j-3nHYV37AF53CL1dJP8" version="14.7.0" type="github">
  <diagram id="8I2YrcaKIrtsDcu3kpUh" name="Page-1">
    <mxGraphModel dx="2066" dy="737" grid="1" gridSize="10" guides="1" tooltips="1" connect="1" arrows="1" fold="1" page="1" pageScale="1" pageWidth="850" pageHeight="1100" math="0" shadow="0">
      <root>
        <mxCell id="0" />
        <mxCell id="1" parent="0" />
        <mxCell id="HaJJC9MkkrDI2fJqkNPy-1" value="" style="swimlane;startSize=0;sketch=1;rounded=1;" parent="1" vertex="1">
          <mxGeometry x="70" y="70" width="380" height="1090" as="geometry">
            <mxRectangle x="60" y="70" width="50" height="40" as="alternateBounds" />
          </mxGeometry>
        </mxCell>
        <mxCell id="HaJJC9MkkrDI2fJqkNPy-2" value="Python Front End" style="text;html=1;align=center;verticalAlign=middle;resizable=0;points=[];autosize=1;strokeColor=none;sketch=1;rounded=1;" parent="HaJJC9MkkrDI2fJqkNPy-1" vertex="1">
          <mxGeometry x="10" y="20" width="110" height="20" as="geometry" />
        </mxCell>
        <mxCell id="HaJJC9MkkrDI2fJqkNPy-3" style="edgeStyle=orthogonalEdgeStyle;orthogonalLoop=1;jettySize=auto;html=1;entryX=0;entryY=0;entryDx=0;entryDy=32;entryPerimeter=0;exitX=0;exitY=0;exitDx=0;exitDy=41;exitPerimeter=0;sketch=1;curved=1;" parent="HaJJC9MkkrDI2fJqkNPy-1" source="HaJJC9MkkrDI2fJqkNPy-5" target="HaJJC9MkkrDI2fJqkNPy-12" edge="1">
          <mxGeometry relative="1" as="geometry" />
        </mxCell>
        <mxCell id="HaJJC9MkkrDI2fJqkNPy-4" style="edgeStyle=orthogonalEdgeStyle;orthogonalLoop=1;jettySize=auto;html=1;exitX=0;exitY=0;exitDx=0;exitDy=32;exitPerimeter=0;entryX=0;entryY=0;entryDx=0;entryDy=32;entryPerimeter=0;sketch=1;curved=1;" parent="HaJJC9MkkrDI2fJqkNPy-1" source="HaJJC9MkkrDI2fJqkNPy-5" target="HaJJC9MkkrDI2fJqkNPy-13" edge="1">
          <mxGeometry relative="1" as="geometry">
            <Array as="points">
              <mxPoint x="50" y="92" />
              <mxPoint x="50" y="762" />
            </Array>
          </mxGeometry>
        </mxCell>
        <mxCell id="HaJJC9MkkrDI2fJqkNPy-5" value="VarBase(Tensor)" style="shape=folder;fontStyle=1;spacingTop=10;tabWidth=40;tabHeight=14;tabPosition=left;html=1;sketch=1;rounded=1;" parent="HaJJC9MkkrDI2fJqkNPy-1" vertex="1">
          <mxGeometry x="80" y="60" width="120" height="50" as="geometry" />
        </mxCell>
        <mxCell id="HaJJC9MkkrDI2fJqkNPy-6" style="edgeStyle=orthogonalEdgeStyle;orthogonalLoop=1;jettySize=auto;html=1;exitX=0.5;exitY=1;exitDx=0;exitDy=0;exitPerimeter=0;entryX=0;entryY=0;entryDx=172.5;entryDy=32;entryPerimeter=0;sketch=1;curved=1;" parent="HaJJC9MkkrDI2fJqkNPy-1" source="HaJJC9MkkrDI2fJqkNPy-8" target="HaJJC9MkkrDI2fJqkNPy-12" edge="1">
          <mxGeometry relative="1" as="geometry" />
        </mxCell>
        <mxCell id="HaJJC9MkkrDI2fJqkNPy-7" style="edgeStyle=orthogonalEdgeStyle;orthogonalLoop=1;jettySize=auto;html=1;exitX=0.75;exitY=1;exitDx=0;exitDy=0;exitPerimeter=0;entryX=0;entryY=0;entryDx=192.5;entryDy=32;entryPerimeter=0;sketch=1;curved=1;" parent="HaJJC9MkkrDI2fJqkNPy-1" source="HaJJC9MkkrDI2fJqkNPy-8" target="HaJJC9MkkrDI2fJqkNPy-13" edge="1">
          <mxGeometry relative="1" as="geometry" />
        </mxCell>
        <mxCell id="HaJJC9MkkrDI2fJqkNPy-8" value="ParamBase(VarBase)" style="shape=folder;fontStyle=1;spacingTop=10;tabWidth=40;tabHeight=14;tabPosition=left;html=1;sketch=1;rounded=1;" parent="HaJJC9MkkrDI2fJqkNPy-1" vertex="1">
          <mxGeometry x="240" y="320" width="120" height="50" as="geometry" />
        </mxCell>
        <mxCell id="HaJJC9MkkrDI2fJqkNPy-9" value="Relation" style="endArrow=open;html=1;endSize=12;startArrow=diamondThin;startSize=14;startFill=0;edgeStyle=orthogonalEdgeStyle;exitX=0;exitY=0;exitDx=120;exitDy=32;exitPerimeter=0;entryX=0;entryY=0;entryDx=0;entryDy=32;entryPerimeter=0;sketch=1;curved=1;" parent="HaJJC9MkkrDI2fJqkNPy-1" source="HaJJC9MkkrDI2fJqkNPy-5" target="HaJJC9MkkrDI2fJqkNPy-8" edge="1">
          <mxGeometry relative="1" as="geometry">
            <mxPoint x="110" y="250" as="sourcePoint" />
            <mxPoint x="270" y="250" as="targetPoint" />
          </mxGeometry>
        </mxCell>
        <mxCell id="HaJJC9MkkrDI2fJqkNPy-10" value="0..n" style="edgeLabel;resizable=0;html=1;align=left;verticalAlign=top;sketch=1;rounded=1;" parent="HaJJC9MkkrDI2fJqkNPy-9" connectable="0" vertex="1">
          <mxGeometry x="-1" relative="1" as="geometry" />
        </mxCell>
        <mxCell id="HaJJC9MkkrDI2fJqkNPy-11" value="1" style="edgeLabel;resizable=0;html=1;align=right;verticalAlign=top;sketch=1;rounded=1;" parent="HaJJC9MkkrDI2fJqkNPy-9" connectable="0" vertex="1">
          <mxGeometry x="1" relative="1" as="geometry" />
        </mxCell>
        <mxCell id="HaJJC9MkkrDI2fJqkNPy-12" value="ComputeUnit/API(core.ops)" style="shape=folder;fontStyle=1;spacingTop=10;tabWidth=40;tabHeight=14;tabPosition=left;html=1;sketch=1;rounded=1;" parent="HaJJC9MkkrDI2fJqkNPy-1" vertex="1">
          <mxGeometry x="103.75" y="520" width="172.5" height="50" as="geometry" />
        </mxCell>
        <mxCell id="HaJJC9MkkrDI2fJqkNPy-13" value="C++ related frame API(trace,...)" style="shape=folder;fontStyle=1;spacingTop=10;tabWidth=40;tabHeight=14;tabPosition=left;html=1;sketch=1;rounded=1;" parent="HaJJC9MkkrDI2fJqkNPy-1" vertex="1">
          <mxGeometry x="93.75" y="730" width="192.5" height="50" as="geometry" />
        </mxCell>
        <mxCell id="HaJJC9MkkrDI2fJqkNPy-14" value="" style="swimlane;startSize=0;sketch=1;rounded=1;" parent="1" vertex="1">
          <mxGeometry x="450" y="70" width="400" height="1090" as="geometry" />
        </mxCell>
        <mxCell id="HaJJC9MkkrDI2fJqkNPy-15" value="pybind interface" style="text;html=1;align=center;verticalAlign=middle;resizable=0;points=[];autosize=1;strokeColor=none;sketch=1;rounded=1;" parent="HaJJC9MkkrDI2fJqkNPy-14" vertex="1">
          <mxGeometry y="10" width="100" height="20" as="geometry" />
        </mxCell>
        <mxCell id="HaJJC9MkkrDI2fJqkNPy-16" value="Tensor" style="shape=folder;fontStyle=1;spacingTop=10;tabWidth=40;tabHeight=14;tabPosition=left;html=1;sketch=1;rounded=1;" parent="HaJJC9MkkrDI2fJqkNPy-14" vertex="1">
          <mxGeometry x="195" y="60" width="70" height="50" as="geometry" />
        </mxCell>
        <mxCell id="HaJJC9MkkrDI2fJqkNPy-18" value="CastPyHandleToVarBase" style="shape=folder;fontStyle=1;spacingTop=10;tabWidth=40;tabHeight=14;tabPosition=left;html=1;sketch=1;rounded=1;" parent="HaJJC9MkkrDI2fJqkNPy-14" vertex="1">
          <mxGeometry x="16" y="510" width="150" height="50" as="geometry" />
        </mxCell>
        <mxCell id="HaJJC9MkkrDI2fJqkNPy-21" value="C++ related frame API" style="shape=folder;fontStyle=1;spacingTop=10;tabWidth=40;tabHeight=14;tabPosition=left;html=1;sketch=1;rounded=1;" parent="HaJJC9MkkrDI2fJqkNPy-14" vertex="1">
          <mxGeometry x="125" y="730" width="140" height="50" as="geometry" />
        </mxCell>
        <mxCell id="HaJJC9MkkrDI2fJqkNPy-23" value="Extends" style="endArrow=block;endSize=16;endFill=0;html=1;exitX=0;exitY=0;exitDx=95;exitDy=14;exitPerimeter=0;entryX=0.5;entryY=1;entryDx=0;entryDy=0;entryPerimeter=0;sketch=1;curved=1;" parent="HaJJC9MkkrDI2fJqkNPy-14" source="HaJJC9MkkrDI2fJqkNPy-18" target="HaJJC9MkkrDI2fJqkNPy-16" edge="1">
          <mxGeometry width="160" relative="1" as="geometry">
            <mxPoint x="50" y="500" as="sourcePoint" />
            <mxPoint x="210" y="500" as="targetPoint" />
          </mxGeometry>
        </mxCell>
        <mxCell id="HaJJC9MkkrDI2fJqkNPy-26" style="edgeStyle=orthogonalEdgeStyle;orthogonalLoop=1;jettySize=auto;html=1;exitX=0;exitY=0;exitDx=120;exitDy=23;exitPerimeter=0;entryX=0;entryY=0;entryDx=0;entryDy=23;entryPerimeter=0;sketch=1;curved=1;" parent="1" source="HaJJC9MkkrDI2fJqkNPy-5" target="HaJJC9MkkrDI2fJqkNPy-16" edge="1">
          <mxGeometry relative="1" as="geometry" />
        </mxCell>
        <mxCell id="HaJJC9MkkrDI2fJqkNPy-27" style="edgeStyle=orthogonalEdgeStyle;orthogonalLoop=1;jettySize=auto;html=1;exitX=0;exitY=0;exitDx=120;exitDy=32;exitPerimeter=0;entryX=0;entryY=0;entryDx=0;entryDy=41;entryPerimeter=0;sketch=1;curved=1;" parent="1" source="HaJJC9MkkrDI2fJqkNPy-8" target="HaJJC9MkkrDI2fJqkNPy-16" edge="1">
          <mxGeometry relative="1" as="geometry" />
        </mxCell>
        <mxCell id="HaJJC9MkkrDI2fJqkNPy-28" style="edgeStyle=orthogonalEdgeStyle;orthogonalLoop=1;jettySize=auto;html=1;exitX=0;exitY=0;exitDx=192.5;exitDy=41;exitPerimeter=0;entryX=0;entryY=0;entryDx=0;entryDy=41;entryPerimeter=0;sketch=1;curved=1;" parent="1" source="HaJJC9MkkrDI2fJqkNPy-13" target="HaJJC9MkkrDI2fJqkNPy-21" edge="1">
          <mxGeometry relative="1" as="geometry" />
        </mxCell>
        <mxCell id="HaJJC9MkkrDI2fJqkNPy-29" value="" style="swimlane;startSize=0;sketch=1;rounded=1;" parent="1" vertex="1">
          <mxGeometry x="850" y="70" width="2200" height="1090" as="geometry" />
        </mxCell>
        <mxCell id="HaJJC9MkkrDI2fJqkNPy-30" value="C++ BackEnd" style="text;html=1;align=center;verticalAlign=middle;resizable=0;points=[];autosize=1;strokeColor=none;sketch=1;rounded=1;" parent="HaJJC9MkkrDI2fJqkNPy-29" vertex="1">
          <mxGeometry x="10" y="10" width="90" height="20" as="geometry" />
        </mxCell>
        <mxCell id="HaJJC9MkkrDI2fJqkNPy-38" value="TensorWrapper" style="swimlane;fontStyle=1;align=center;verticalAlign=top;childLayout=stackLayout;horizontal=1;startSize=26;horizontalStack=0;resizeParent=1;resizeParentMax=0;resizeLast=0;collapsible=1;marginBottom=0;sketch=1;rounded=1;" parent="HaJJC9MkkrDI2fJqkNPy-29" vertex="1">
          <mxGeometry x="370" y="40" width="450" height="190" as="geometry" />
        </mxCell>
        <mxCell id="HaJJC9MkkrDI2fJqkNPy-39" value="+ var_: framework::Tensor" style="text;strokeColor=none;fillColor=none;align=left;verticalAlign=top;spacingLeft=4;spacingRight=4;overflow=hidden;rotatable=0;points=[[0,0.5],[1,0.5]];portConstraint=eastwest;sketch=1;rounded=1;" parent="HaJJC9MkkrDI2fJqkNPy-38" vertex="1">
          <mxGeometry y="26" width="450" height="26" as="geometry" />
        </mxCell>
        <mxCell id="HaJJC9MkkrDI2fJqkNPy-41" value="+ grad_var_: std::weak_ptr&lt;Tensor&gt;" style="text;strokeColor=none;fillColor=none;align=left;verticalAlign=top;spacingLeft=4;spacingRight=4;overflow=hidden;rotatable=0;points=[[0,0.5],[1,0.5]];portConstraint=eastwest;sketch=1;rounded=1;" parent="HaJJC9MkkrDI2fJqkNPy-38" vertex="1">
          <mxGeometry y="52" width="450" height="26" as="geometry" />
        </mxCell>
        <mxCell id="HaJJC9MkkrDI2fJqkNPy-42" value="+ grad_node_: std::weak_ptr&lt;GradOpNode&gt;" style="text;strokeColor=none;fillColor=none;align=left;verticalAlign=top;spacingLeft=4;spacingRight=4;overflow=hidden;rotatable=0;points=[[0,0.5],[1,0.5]];portConstraint=eastwest;sketch=1;rounded=1;" parent="HaJJC9MkkrDI2fJqkNPy-38" vertex="1">
          <mxGeometry y="78" width="450" height="26" as="geometry" />
        </mxCell>
        <mxCell id="HaJJC9MkkrDI2fJqkNPy-43" value="+ var_hooks: std::map&lt;int64_t, std::shared_ptr&lt;VariableWrapperHook&gt;&gt;rHook&gt;" style="text;strokeColor=none;fillColor=none;align=left;verticalAlign=top;spacingLeft=4;spacingRight=4;overflow=hidden;rotatable=0;points=[[0,0.5],[1,0.5]];portConstraint=eastwest;sketch=1;rounded=1;" parent="HaJJC9MkkrDI2fJqkNPy-38" vertex="1">
          <mxGeometry y="104" width="450" height="26" as="geometry" />
        </mxCell>
        <mxCell id="HaJJC9MkkrDI2fJqkNPy-44" value="" style="line;strokeWidth=1;fillColor=none;align=left;verticalAlign=middle;spacingTop=-1;spacingLeft=3;spacingRight=3;rotatable=0;labelPosition=right;points=[];portConstraint=eastwest;sketch=1;rounded=1;" parent="HaJJC9MkkrDI2fJqkNPy-38" vertex="1">
          <mxGeometry y="130" width="450" height="8" as="geometry" />
        </mxCell>
        <mxCell id="HaJJC9MkkrDI2fJqkNPy-45" value="+ inplace related methods" style="text;strokeColor=none;fillColor=none;align=left;verticalAlign=top;spacingLeft=4;spacingRight=4;overflow=hidden;rotatable=0;points=[[0,0.5],[1,0.5]];portConstraint=eastwest;sketch=1;rounded=1;" parent="HaJJC9MkkrDI2fJqkNPy-38" vertex="1">
          <mxGeometry y="138" width="450" height="26" as="geometry" />
        </mxCell>
        <mxCell id="HaJJC9MkkrDI2fJqkNPy-46" value="+ variableHooks related methods" style="text;strokeColor=none;fillColor=none;align=left;verticalAlign=top;spacingLeft=4;spacingRight=4;overflow=hidden;rotatable=0;points=[[0,0.5],[1,0.5]];portConstraint=eastwest;sketch=1;rounded=1;" parent="HaJJC9MkkrDI2fJqkNPy-38" vertex="1">
          <mxGeometry y="164" width="450" height="26" as="geometry" />
        </mxCell>
        <mxCell id="HaJJC9MkkrDI2fJqkNPy-47" value="Variable" style="swimlane;fontStyle=1;align=center;verticalAlign=top;childLayout=stackLayout;horizontal=1;startSize=26;horizontalStack=0;resizeParent=1;resizeParentMax=0;resizeLast=0;collapsible=1;marginBottom=0;sketch=1;rounded=1;" parent="HaJJC9MkkrDI2fJqkNPy-29" vertex="1">
          <mxGeometry x="840" y="120" width="270" height="86" as="geometry" />
        </mxCell>
        <mxCell id="HaJJC9MkkrDI2fJqkNPy-48" value="+ holder_: std::shared_ptr&lt;Placeholder&gt;" style="text;strokeColor=none;fillColor=none;align=left;verticalAlign=top;spacingLeft=4;spacingRight=4;overflow=hidden;rotatable=0;points=[[0,0.5],[1,0.5]];portConstraint=eastwest;sketch=1;rounded=1;" parent="HaJJC9MkkrDI2fJqkNPy-47" vertex="1">
          <mxGeometry y="26" width="270" height="26" as="geometry" />
        </mxCell>
        <mxCell id="HaJJC9MkkrDI2fJqkNPy-49" value="" style="line;strokeWidth=1;fillColor=none;align=left;verticalAlign=middle;spacingTop=-1;spacingLeft=3;spacingRight=3;rotatable=0;labelPosition=right;points=[];portConstraint=eastwest;sketch=1;rounded=1;" parent="HaJJC9MkkrDI2fJqkNPy-47" vertex="1">
          <mxGeometry y="52" width="270" height="8" as="geometry" />
        </mxCell>
        <mxCell id="HaJJC9MkkrDI2fJqkNPy-50" value="+ Getter/Setter" style="text;strokeColor=none;fillColor=none;align=left;verticalAlign=top;spacingLeft=4;spacingRight=4;overflow=hidden;rotatable=0;points=[[0,0.5],[1,0.5]];portConstraint=eastwest;sketch=1;rounded=1;" parent="HaJJC9MkkrDI2fJqkNPy-47" vertex="1">
          <mxGeometry y="60" width="270" height="26" as="geometry" />
        </mxCell>
        <mxCell id="HaJJC9MkkrDI2fJqkNPy-51" value="LoDTensor" style="swimlane;fontStyle=1;align=center;verticalAlign=top;childLayout=stackLayout;horizontal=1;startSize=26;horizontalStack=0;resizeParent=1;resizeParentMax=0;resizeLast=0;collapsible=1;marginBottom=0;sketch=1;rounded=1;" parent="HaJJC9MkkrDI2fJqkNPy-29" vertex="1">
          <mxGeometry x="1180" y="30" width="160" height="60" as="geometry" />
        </mxCell>
        <mxCell id="HaJJC9MkkrDI2fJqkNPy-52" value="+ Lod: type" style="text;strokeColor=none;fillColor=none;align=left;verticalAlign=top;spacingLeft=4;spacingRight=4;overflow=hidden;rotatable=0;points=[[0,0.5],[1,0.5]];portConstraint=eastwest;sketch=1;rounded=1;" parent="HaJJC9MkkrDI2fJqkNPy-51" vertex="1">
          <mxGeometry y="26" width="160" height="26" as="geometry" />
        </mxCell>
        <mxCell id="HaJJC9MkkrDI2fJqkNPy-53" value="" style="line;strokeWidth=1;fillColor=none;align=left;verticalAlign=middle;spacingTop=-1;spacingLeft=3;spacingRight=3;rotatable=0;labelPosition=right;points=[];portConstraint=eastwest;sketch=1;rounded=1;" parent="HaJJC9MkkrDI2fJqkNPy-51" vertex="1">
          <mxGeometry y="52" width="160" height="8" as="geometry" />
        </mxCell>
        <mxCell id="HaJJC9MkkrDI2fJqkNPy-54" value="Raw" style="swimlane;fontStyle=1;align=center;verticalAlign=top;childLayout=stackLayout;horizontal=1;startSize=26;horizontalStack=0;resizeParent=1;resizeParentMax=0;resizeLast=0;collapsible=1;marginBottom=0;sketch=1;rounded=1;" parent="HaJJC9MkkrDI2fJqkNPy-29" vertex="1">
          <mxGeometry x="1180" y="232" width="160" height="34" as="geometry" />
        </mxCell>
        <mxCell id="HaJJC9MkkrDI2fJqkNPy-55" value="" style="line;strokeWidth=1;fillColor=none;align=left;verticalAlign=middle;spacingTop=-1;spacingLeft=3;spacingRight=3;rotatable=0;labelPosition=right;points=[];portConstraint=eastwest;sketch=1;rounded=1;" parent="HaJJC9MkkrDI2fJqkNPy-54" vertex="1">
          <mxGeometry y="26" width="160" height="8" as="geometry" />
        </mxCell>
        <mxCell id="HaJJC9MkkrDI2fJqkNPy-56" value="SelectedRows" style="swimlane;fontStyle=0;childLayout=stackLayout;horizontal=1;startSize=26;fillColor=none;horizontalStack=0;resizeParent=1;resizeParentMax=0;resizeLast=0;collapsible=1;marginBottom=0;sketch=1;rounded=1;" parent="HaJJC9MkkrDI2fJqkNPy-29" vertex="1">
          <mxGeometry x="1140" y="120" width="290" height="104" as="geometry" />
        </mxCell>
        <mxCell id="HaJJC9MkkrDI2fJqkNPy-57" value="+ rows: Vector&lt;int64_t&gt;" style="text;strokeColor=none;fillColor=none;align=left;verticalAlign=top;spacingLeft=4;spacingRight=4;overflow=hidden;rotatable=0;points=[[0,0.5],[1,0.5]];portConstraint=eastwest;sketch=1;rounded=1;" parent="HaJJC9MkkrDI2fJqkNPy-56" vertex="1">
          <mxGeometry y="26" width="290" height="26" as="geometry" />
        </mxCell>
        <mxCell id="HaJJC9MkkrDI2fJqkNPy-58" value="+ id_to_index_: std::unordered_map&lt;int64_t, int64_t&gt;" style="text;strokeColor=none;fillColor=none;align=left;verticalAlign=top;spacingLeft=4;spacingRight=4;overflow=hidden;rotatable=0;points=[[0,0.5],[1,0.5]];portConstraint=eastwest;sketch=1;rounded=1;" parent="HaJJC9MkkrDI2fJqkNPy-56" vertex="1">
          <mxGeometry y="52" width="290" height="26" as="geometry" />
        </mxCell>
        <mxCell id="HaJJC9MkkrDI2fJqkNPy-59" value="+ value_: std::unique_ptr&lt;Tensor&gt;" style="text;strokeColor=none;fillColor=none;align=left;verticalAlign=top;spacingLeft=4;spacingRight=4;overflow=hidden;rotatable=0;points=[[0,0.5],[1,0.5]];portConstraint=eastwest;sketch=1;rounded=1;" parent="HaJJC9MkkrDI2fJqkNPy-56" vertex="1">
          <mxGeometry y="78" width="290" height="26" as="geometry" />
        </mxCell>
        <mxCell id="HaJJC9MkkrDI2fJqkNPy-60" value="Tensor" style="swimlane;fontStyle=0;childLayout=stackLayout;horizontal=1;startSize=26;fillColor=none;horizontalStack=0;resizeParent=1;resizeParentMax=0;resizeLast=0;collapsible=1;marginBottom=0;sketch=1;rounded=1;" parent="HaJJC9MkkrDI2fJqkNPy-29" vertex="1">
          <mxGeometry x="1490" y="120" width="180" height="78" as="geometry" />
        </mxCell>
        <mxCell id="HaJJC9MkkrDI2fJqkNPy-66" value="+ SomeGetter/Setter Methods: .." style="text;strokeColor=none;fillColor=none;align=left;verticalAlign=top;spacingLeft=4;spacingRight=4;overflow=hidden;rotatable=0;points=[[0,0.5],[1,0.5]];portConstraint=eastwest;sketch=1;rounded=1;" parent="HaJJC9MkkrDI2fJqkNPy-60" vertex="1">
          <mxGeometry y="26" width="180" height="26" as="geometry" />
        </mxCell>
        <mxCell id="HaJJC9MkkrDI2fJqkNPy-400" value="+ unique_ptr&lt;TensorImpl&gt;" style="text;strokeColor=none;fillColor=none;align=left;verticalAlign=top;spacingLeft=4;spacingRight=4;overflow=hidden;rotatable=0;points=[[0,0.5],[1,0.5]];portConstraint=eastwest;sketch=1;rounded=1;" parent="HaJJC9MkkrDI2fJqkNPy-60" vertex="1">
          <mxGeometry y="52" width="180" height="26" as="geometry" />
        </mxCell>
        <mxCell id="HaJJC9MkkrDI2fJqkNPy-152" style="edgeStyle=orthogonalEdgeStyle;orthogonalLoop=1;jettySize=auto;html=1;exitX=1;exitY=0.5;exitDx=0;exitDy=0;entryX=0;entryY=0.5;entryDx=0;entryDy=0;sketch=1;curved=1;" parent="HaJJC9MkkrDI2fJqkNPy-29" source="HaJJC9MkkrDI2fJqkNPy-48" target="HaJJC9MkkrDI2fJqkNPy-51" edge="1">
          <mxGeometry relative="1" as="geometry">
            <Array as="points">
              <mxPoint x="1120" y="159" />
              <mxPoint x="1120" y="60" />
            </Array>
          </mxGeometry>
        </mxCell>
        <mxCell id="HaJJC9MkkrDI2fJqkNPy-153" style="edgeStyle=orthogonalEdgeStyle;orthogonalLoop=1;jettySize=auto;html=1;exitX=1;exitY=0.5;exitDx=0;exitDy=0;entryX=0;entryY=0.5;entryDx=0;entryDy=0;sketch=1;curved=1;" parent="HaJJC9MkkrDI2fJqkNPy-29" source="HaJJC9MkkrDI2fJqkNPy-48" target="HaJJC9MkkrDI2fJqkNPy-57" edge="1">
          <mxGeometry relative="1" as="geometry" />
        </mxCell>
        <mxCell id="HaJJC9MkkrDI2fJqkNPy-154" style="edgeStyle=orthogonalEdgeStyle;orthogonalLoop=1;jettySize=auto;html=1;exitX=1;exitY=0.5;exitDx=0;exitDy=0;entryX=0;entryY=0.5;entryDx=0;entryDy=0;sketch=1;curved=1;" parent="HaJJC9MkkrDI2fJqkNPy-29" source="HaJJC9MkkrDI2fJqkNPy-48" target="HaJJC9MkkrDI2fJqkNPy-54" edge="1">
          <mxGeometry relative="1" as="geometry">
            <Array as="points">
              <mxPoint x="1120" y="159" />
              <mxPoint x="1120" y="249" />
            </Array>
          </mxGeometry>
        </mxCell>
        <mxCell id="HaJJC9MkkrDI2fJqkNPy-155" value="1" style="endArrow=open;html=1;endSize=12;startArrow=diamondThin;startSize=14;startFill=1;edgeStyle=orthogonalEdgeStyle;align=left;verticalAlign=bottom;exitX=1;exitY=0.5;exitDx=0;exitDy=0;entryX=0;entryY=0.5;entryDx=0;entryDy=0;sketch=1;curved=1;" parent="HaJJC9MkkrDI2fJqkNPy-29" source="HaJJC9MkkrDI2fJqkNPy-58" target="HaJJC9MkkrDI2fJqkNPy-400" edge="1">
          <mxGeometry x="-1" y="3" relative="1" as="geometry">
            <mxPoint x="1360" y="160" as="sourcePoint" />
            <mxPoint x="1470" y="106" as="targetPoint" />
            <Array as="points">
              <mxPoint x="1440" y="185" />
              <mxPoint x="1440" y="185" />
            </Array>
          </mxGeometry>
        </mxCell>
        <mxCell id="HaJJC9MkkrDI2fJqkNPy-156" value="Relation" style="endArrow=open;html=1;endSize=12;startArrow=diamondThin;startSize=14;startFill=0;edgeStyle=orthogonalEdgeStyle;exitX=1;exitY=0.5;exitDx=0;exitDy=0;entryX=0.5;entryY=0;entryDx=0;entryDy=0;sketch=1;curved=1;" parent="HaJJC9MkkrDI2fJqkNPy-29" source="HaJJC9MkkrDI2fJqkNPy-52" target="HaJJC9MkkrDI2fJqkNPy-60" edge="1">
          <mxGeometry relative="1" as="geometry">
            <mxPoint x="1420" y="30" as="sourcePoint" />
            <mxPoint x="1580" y="30" as="targetPoint" />
            <Array as="points">
              <mxPoint x="1580" y="69" />
            </Array>
          </mxGeometry>
        </mxCell>
        <mxCell id="HaJJC9MkkrDI2fJqkNPy-157" value="0..n" style="edgeLabel;resizable=0;html=1;align=left;verticalAlign=top;sketch=1;rounded=1;" parent="HaJJC9MkkrDI2fJqkNPy-156" connectable="0" vertex="1">
          <mxGeometry x="-1" relative="1" as="geometry" />
        </mxCell>
        <mxCell id="HaJJC9MkkrDI2fJqkNPy-158" value="1" style="edgeLabel;resizable=0;html=1;align=right;verticalAlign=top;sketch=1;rounded=1;" parent="HaJJC9MkkrDI2fJqkNPy-156" connectable="0" vertex="1">
          <mxGeometry x="1" relative="1" as="geometry" />
        </mxCell>
        <mxCell id="HaJJC9MkkrDI2fJqkNPy-159" value="Call Stack of Dygraph" style="swimlane;sketch=1;rounded=1;" parent="HaJJC9MkkrDI2fJqkNPy-29" vertex="1">
          <mxGeometry x="360" y="288" width="470" height="750" as="geometry" />
        </mxCell>
        <mxCell id="HaJJC9MkkrDI2fJqkNPy-445" value="Api related Unique WrapperCode" style="html=1;sketch=1;rounded=1;" parent="HaJJC9MkkrDI2fJqkNPy-159" vertex="1">
          <mxGeometry x="110" y="62" width="200" height="50" as="geometry" />
        </mxCell>
        <mxCell id="HaJJC9MkkrDI2fJqkNPy-149" value="&lt;div style=&quot;color: rgb(212 , 212 , 212) ; background-color: rgb(30 , 30 , 30) ; font-family: &amp;#34;menlo&amp;#34; , &amp;#34;monaco&amp;#34; , &amp;#34;courier new&amp;#34; , monospace ; line-height: 18px&quot;&gt;&lt;span style=&quot;color: #dcdcaa&quot;&gt;BasicEngine::Run&lt;/span&gt;&lt;/div&gt;" style="html=1;sketch=1;rounded=1;" parent="HaJJC9MkkrDI2fJqkNPy-159" vertex="1">
          <mxGeometry x="90" y="556" width="260" height="50" as="geometry" />
        </mxCell>
        <mxCell id="HaJJC9MkkrDI2fJqkNPy-506" value="1" style="endArrow=open;html=1;endSize=12;startArrow=diamondThin;startSize=14;startFill=0;edgeStyle=orthogonalEdgeStyle;align=left;verticalAlign=bottom;sketch=1;curved=1;" parent="HaJJC9MkkrDI2fJqkNPy-159" target="HaJJC9MkkrDI2fJqkNPy-483" edge="1">
          <mxGeometry x="-1" y="3" relative="1" as="geometry">
            <mxPoint x="350" y="580.5" as="sourcePoint" />
            <mxPoint x="510" y="580.5" as="targetPoint" />
            <Array as="points">
              <mxPoint x="1140" y="581" />
              <mxPoint x="1140" y="421" />
            </Array>
          </mxGeometry>
        </mxCell>
        <mxCell id="HaJJC9MkkrDI2fJqkNPy-507" value="Call" style="edgeLabel;html=1;align=center;verticalAlign=middle;resizable=0;points=[];sketch=1;rounded=1;" parent="HaJJC9MkkrDI2fJqkNPy-506" vertex="1" connectable="0">
          <mxGeometry x="-0.0053" y="-3" relative="1" as="geometry">
            <mxPoint y="1" as="offset" />
          </mxGeometry>
        </mxCell>
        <mxCell id="HaJJC9MkkrDI2fJqkNPy-160" value="Engine" style="swimlane;fontStyle=1;align=center;verticalAlign=top;childLayout=stackLayout;horizontal=1;startSize=26;horizontalStack=0;resizeParent=1;resizeParentMax=0;resizeLast=0;collapsible=1;marginBottom=0;sketch=1;rounded=1;" parent="HaJJC9MkkrDI2fJqkNPy-29" vertex="1">
          <mxGeometry x="30" y="782" width="300" height="164" as="geometry" />
        </mxCell>
        <mxCell id="HaJJC9MkkrDI2fJqkNPy-161" value="+ init_nodes_" style="text;strokeColor=none;fillColor=none;align=left;verticalAlign=top;spacingLeft=4;spacingRight=4;overflow=hidden;rotatable=0;points=[[0,0.5],[1,0.5]];portConstraint=eastwest;sketch=1;rounded=1;" parent="HaJJC9MkkrDI2fJqkNPy-160" vertex="1">
          <mxGeometry y="26" width="300" height="26" as="geometry" />
        </mxCell>
        <mxCell id="HaJJC9MkkrDI2fJqkNPy-162" value="+ node_deps_" style="text;strokeColor=none;fillColor=none;align=left;verticalAlign=top;spacingLeft=4;spacingRight=4;overflow=hidden;rotatable=0;points=[[0,0.5],[1,0.5]];portConstraint=eastwest;sketch=1;rounded=1;" parent="HaJJC9MkkrDI2fJqkNPy-160" vertex="1">
          <mxGeometry y="52" width="300" height="26" as="geometry" />
        </mxCell>
        <mxCell id="HaJJC9MkkrDI2fJqkNPy-163" value="+ accumulators_related ..." style="text;strokeColor=none;fillColor=none;align=left;verticalAlign=top;spacingLeft=4;spacingRight=4;overflow=hidden;rotatable=0;points=[[0,0.5],[1,0.5]];portConstraint=eastwest;sketch=1;rounded=1;" parent="HaJJC9MkkrDI2fJqkNPy-160" vertex="1">
          <mxGeometry y="78" width="300" height="26" as="geometry" />
        </mxCell>
        <mxCell id="HaJJC9MkkrDI2fJqkNPy-164" value="" style="line;strokeWidth=1;fillColor=none;align=left;verticalAlign=middle;spacingTop=-1;spacingLeft=3;spacingRight=3;rotatable=0;labelPosition=right;points=[];portConstraint=eastwest;sketch=1;rounded=1;" parent="HaJJC9MkkrDI2fJqkNPy-160" vertex="1">
          <mxGeometry y="104" width="300" height="8" as="geometry" />
        </mxCell>
        <mxCell id="HaJJC9MkkrDI2fJqkNPy-165" value="+ PrepareDeps" style="text;strokeColor=none;fillColor=none;align=left;verticalAlign=top;spacingLeft=4;spacingRight=4;overflow=hidden;rotatable=0;points=[[0,0.5],[1,0.5]];portConstraint=eastwest;sketch=1;rounded=1;" parent="HaJJC9MkkrDI2fJqkNPy-160" vertex="1">
          <mxGeometry y="112" width="300" height="26" as="geometry" />
        </mxCell>
        <mxCell id="HaJJC9MkkrDI2fJqkNPy-166" value="+ Execute" style="text;strokeColor=none;fillColor=none;align=left;verticalAlign=top;spacingLeft=4;spacingRight=4;overflow=hidden;rotatable=0;points=[[0,0.5],[1,0.5]];portConstraint=eastwest;sketch=1;rounded=1;" parent="HaJJC9MkkrDI2fJqkNPy-160" vertex="1">
          <mxGeometry y="138" width="300" height="26" as="geometry" />
        </mxCell>
        <mxCell id="HaJJC9MkkrDI2fJqkNPy-169" style="edgeStyle=orthogonalEdgeStyle;orthogonalLoop=1;jettySize=auto;html=1;exitX=1;exitY=0.5;exitDx=0;exitDy=0;entryX=0;entryY=0.5;entryDx=0;entryDy=0;sketch=1;curved=1;" parent="HaJJC9MkkrDI2fJqkNPy-29" source="HaJJC9MkkrDI2fJqkNPy-163" target="HaJJC9MkkrDI2fJqkNPy-149" edge="1">
          <mxGeometry relative="1" as="geometry" />
        </mxCell>
        <mxCell id="HaJJC9MkkrDI2fJqkNPy-170" value="backward call" style="edgeLabel;html=1;align=center;verticalAlign=middle;resizable=0;points=[];sketch=1;rounded=1;" parent="HaJJC9MkkrDI2fJqkNPy-169" vertex="1" connectable="0">
          <mxGeometry x="0.1357" y="-1" relative="1" as="geometry">
            <mxPoint as="offset" />
          </mxGeometry>
        </mxCell>
        <mxCell id="HaJJC9MkkrDI2fJqkNPy-383" value="AutogradMeta" style="swimlane;fontStyle=1;align=center;verticalAlign=top;childLayout=stackLayout;horizontal=1;startSize=26;horizontalStack=0;resizeParent=1;resizeParentMax=0;resizeLast=0;collapsible=1;marginBottom=0;sketch=1;rounded=1;" parent="HaJJC9MkkrDI2fJqkNPy-29" vertex="1">
          <mxGeometry x="20" y="120" width="300" height="190" as="geometry" />
        </mxCell>
        <mxCell id="HaJJC9MkkrDI2fJqkNPy-384" value="+ grad_tensor: framework::Tensor" style="text;strokeColor=none;fillColor=none;align=left;verticalAlign=top;spacingLeft=4;spacingRight=4;overflow=hidden;rotatable=0;points=[[0,0.5],[1,0.5]];portConstraint=eastwest;sketch=1;rounded=1;" parent="HaJJC9MkkrDI2fJqkNPy-383" vertex="1">
          <mxGeometry y="26" width="300" height="26" as="geometry" />
        </mxCell>
        <mxCell id="HaJJC9MkkrDI2fJqkNPy-387" value="+ grad_node_: std::shared_ptr&lt;GradOpNode&gt;" style="text;strokeColor=none;fillColor=none;align=left;verticalAlign=top;spacingLeft=4;spacingRight=4;overflow=hidden;rotatable=0;points=[[0,0.5],[1,0.5]];portConstraint=eastwest;sketch=1;rounded=1;" parent="HaJJC9MkkrDI2fJqkNPy-383" vertex="1">
          <mxGeometry y="52" width="300" height="26" as="geometry" />
        </mxCell>
        <mxCell id="HaJJC9MkkrDI2fJqkNPy-388" value="+ var_hooks: std::map&lt;int64_t, std::shared_ptr&lt;VariableWrapperHook&gt;&gt;rHook&gt;" style="text;strokeColor=none;fillColor=none;align=left;verticalAlign=top;spacingLeft=4;spacingRight=4;overflow=hidden;rotatable=0;points=[[0,0.5],[1,0.5]];portConstraint=eastwest;sketch=1;rounded=1;" parent="HaJJC9MkkrDI2fJqkNPy-383" vertex="1">
          <mxGeometry y="78" width="300" height="26" as="geometry" />
        </mxCell>
        <mxCell id="HaJJC9MkkrDI2fJqkNPy-493" value="+ ..." style="text;strokeColor=none;fillColor=none;align=left;verticalAlign=top;spacingLeft=4;spacingRight=4;overflow=hidden;rotatable=0;points=[[0,0.5],[1,0.5]];portConstraint=eastwest;sketch=1;rounded=1;" parent="HaJJC9MkkrDI2fJqkNPy-383" vertex="1">
          <mxGeometry y="104" width="300" height="26" as="geometry" />
        </mxCell>
        <mxCell id="HaJJC9MkkrDI2fJqkNPy-389" value="" style="line;strokeWidth=1;fillColor=none;align=left;verticalAlign=middle;spacingTop=-1;spacingLeft=3;spacingRight=3;rotatable=0;labelPosition=right;points=[];portConstraint=eastwest;sketch=1;rounded=1;" parent="HaJJC9MkkrDI2fJqkNPy-383" vertex="1">
          <mxGeometry y="130" width="300" height="8" as="geometry" />
        </mxCell>
        <mxCell id="HaJJC9MkkrDI2fJqkNPy-390" value="+ inplace related methods" style="text;strokeColor=none;fillColor=none;align=left;verticalAlign=top;spacingLeft=4;spacingRight=4;overflow=hidden;rotatable=0;points=[[0,0.5],[1,0.5]];portConstraint=eastwest;sketch=1;rounded=1;" parent="HaJJC9MkkrDI2fJqkNPy-383" vertex="1">
          <mxGeometry y="138" width="300" height="26" as="geometry" />
        </mxCell>
        <mxCell id="HaJJC9MkkrDI2fJqkNPy-391" value="+ variableHooks related methods" style="text;strokeColor=none;fillColor=none;align=left;verticalAlign=top;spacingLeft=4;spacingRight=4;overflow=hidden;rotatable=0;points=[[0,0.5],[1,0.5]];portConstraint=eastwest;sketch=1;rounded=1;" parent="HaJJC9MkkrDI2fJqkNPy-383" vertex="1">
          <mxGeometry y="164" width="300" height="26" as="geometry" />
        </mxCell>
        <mxCell id="HaJJC9MkkrDI2fJqkNPy-392" value="TensorImpl" style="swimlane;fontStyle=0;childLayout=stackLayout;horizontal=1;startSize=26;fillColor=none;horizontalStack=0;resizeParent=1;resizeParentMax=0;resizeLast=0;collapsible=1;marginBottom=0;sketch=1;rounded=1;" parent="HaJJC9MkkrDI2fJqkNPy-29" vertex="1">
          <mxGeometry x="1730" y="79" width="270" height="208" as="geometry" />
        </mxCell>
        <mxCell id="HaJJC9MkkrDI2fJqkNPy-393" value="+ holder_: std::shared_ptr&lt;memory::Allocation&gt;" style="text;strokeColor=none;fillColor=none;align=left;verticalAlign=top;spacingLeft=4;spacingRight=4;overflow=hidden;rotatable=0;points=[[0,0.5],[1,0.5]];portConstraint=eastwest;sketch=1;rounded=1;" parent="HaJJC9MkkrDI2fJqkNPy-392" vertex="1">
          <mxGeometry y="26" width="270" height="26" as="geometry" />
        </mxCell>
        <mxCell id="HaJJC9MkkrDI2fJqkNPy-394" value="+ type_: proto::VarType::Type" style="text;strokeColor=none;fillColor=none;align=left;verticalAlign=top;spacingLeft=4;spacingRight=4;overflow=hidden;rotatable=0;points=[[0,0.5],[1,0.5]];portConstraint=eastwest;sketch=1;rounded=1;" parent="HaJJC9MkkrDI2fJqkNPy-392" vertex="1">
          <mxGeometry y="52" width="270" height="26" as="geometry" />
        </mxCell>
        <mxCell id="HaJJC9MkkrDI2fJqkNPy-395" value="+ dims_: DDim" style="text;strokeColor=none;fillColor=none;align=left;verticalAlign=top;spacingLeft=4;spacingRight=4;overflow=hidden;rotatable=0;points=[[0,0.5],[1,0.5]];portConstraint=eastwest;sketch=1;rounded=1;" parent="HaJJC9MkkrDI2fJqkNPy-392" vertex="1">
          <mxGeometry y="78" width="270" height="26" as="geometry" />
        </mxCell>
        <mxCell id="HaJJC9MkkrDI2fJqkNPy-396" value="+ layout_: DataLayout" style="text;strokeColor=none;fillColor=none;align=left;verticalAlign=top;spacingLeft=4;spacingRight=4;overflow=hidden;rotatable=0;points=[[0,0.5],[1,0.5]];portConstraint=eastwest;sketch=1;rounded=1;" parent="HaJJC9MkkrDI2fJqkNPy-392" vertex="1">
          <mxGeometry y="104" width="270" height="26" as="geometry" />
        </mxCell>
        <mxCell id="HaJJC9MkkrDI2fJqkNPy-397" value="+ offset_: size_t" style="text;strokeColor=none;fillColor=none;align=left;verticalAlign=top;spacingLeft=4;spacingRight=4;overflow=hidden;rotatable=0;points=[[0,0.5],[1,0.5]];portConstraint=eastwest;sketch=1;rounded=1;" parent="HaJJC9MkkrDI2fJqkNPy-392" vertex="1">
          <mxGeometry y="130" width="270" height="26" as="geometry" />
        </mxCell>
        <mxCell id="HaJJC9MkkrDI2fJqkNPy-398" value="+ inplace_version_counter_: .." style="text;strokeColor=none;fillColor=none;align=left;verticalAlign=top;spacingLeft=4;spacingRight=4;overflow=hidden;rotatable=0;points=[[0,0.5],[1,0.5]];portConstraint=eastwest;sketch=1;rounded=1;" parent="HaJJC9MkkrDI2fJqkNPy-392" vertex="1">
          <mxGeometry y="156" width="270" height="26" as="geometry" />
        </mxCell>
        <mxCell id="HaJJC9MkkrDI2fJqkNPy-402" value="+ unique_ptr&lt;AutogradMeta&gt;: autograd_meta_" style="text;strokeColor=none;fillColor=none;align=left;verticalAlign=top;spacingLeft=4;spacingRight=4;overflow=hidden;rotatable=0;points=[[0,0.5],[1,0.5]];portConstraint=eastwest;sketch=1;rounded=1;" parent="HaJJC9MkkrDI2fJqkNPy-392" vertex="1">
          <mxGeometry y="182" width="270" height="26" as="geometry" />
        </mxCell>
        <mxCell id="HaJJC9MkkrDI2fJqkNPy-401" value="" style="endArrow=diamondThin;endFill=1;endSize=24;html=1;exitX=1;exitY=0.5;exitDx=0;exitDy=0;sketch=1;curved=1;" parent="HaJJC9MkkrDI2fJqkNPy-29" source="HaJJC9MkkrDI2fJqkNPy-400" edge="1">
          <mxGeometry width="160" relative="1" as="geometry">
            <mxPoint x="1430" y="460" as="sourcePoint" />
            <mxPoint x="1730" y="185" as="targetPoint" />
          </mxGeometry>
        </mxCell>
        <mxCell id="HaJJC9MkkrDI2fJqkNPy-404" value="Only Not nulltpr in Dygraph Mode" style="endArrow=diamondThin;endFill=1;endSize=24;html=1;entryX=1;entryY=0.5;entryDx=0;entryDy=0;exitX=0;exitY=0.5;exitDx=0;exitDy=0;sketch=1;curved=1;" parent="HaJJC9MkkrDI2fJqkNPy-29" source="HaJJC9MkkrDI2fJqkNPy-402" target="HaJJC9MkkrDI2fJqkNPy-390" edge="1">
          <mxGeometry width="160" relative="1" as="geometry">
            <mxPoint x="170" y="320" as="sourcePoint" />
            <mxPoint x="330" y="320" as="targetPoint" />
            <Array as="points" />
          </mxGeometry>
        </mxCell>
        <mxCell id="HaJJC9MkkrDI2fJqkNPy-405" style="edgeStyle=orthogonalEdgeStyle;orthogonalLoop=1;jettySize=auto;html=1;exitX=0;exitY=0.5;exitDx=0;exitDy=0;entryX=0.5;entryY=0;entryDx=0;entryDy=0;sketch=1;curved=1;" parent="HaJJC9MkkrDI2fJqkNPy-29" source="HaJJC9MkkrDI2fJqkNPy-39" target="HaJJC9MkkrDI2fJqkNPy-383" edge="1">
          <mxGeometry relative="1" as="geometry" />
        </mxCell>
        <mxCell id="HaJJC9MkkrDI2fJqkNPy-406" value="Temporal Wrapper" style="edgeStyle=orthogonalEdgeStyle;orthogonalLoop=1;jettySize=auto;html=1;exitX=1;exitY=0.5;exitDx=0;exitDy=0;sketch=1;curved=1;" parent="HaJJC9MkkrDI2fJqkNPy-29" source="HaJJC9MkkrDI2fJqkNPy-39" target="HaJJC9MkkrDI2fJqkNPy-60" edge="1">
          <mxGeometry relative="1" as="geometry">
            <Array as="points">
              <mxPoint x="880" y="79" />
              <mxPoint x="880" y="20" />
              <mxPoint x="1580" y="20" />
            </Array>
          </mxGeometry>
        </mxCell>
        <mxCell id="HaJJC9MkkrDI2fJqkNPy-407" value="FowardWrapper" style="swimlane;sketch=1;rounded=1;" parent="HaJJC9MkkrDI2fJqkNPy-29" vertex="1">
          <mxGeometry x="900" y="292" width="280" height="490" as="geometry" />
        </mxCell>
        <mxCell id="HaJJC9MkkrDI2fJqkNPy-466" style="edgeStyle=orthogonalEdgeStyle;orthogonalLoop=1;jettySize=auto;html=1;exitX=0.5;exitY=1;exitDx=0;exitDy=0;sketch=1;curved=1;" parent="HaJJC9MkkrDI2fJqkNPy-407" source="HaJJC9MkkrDI2fJqkNPy-409" target="HaJJC9MkkrDI2fJqkNPy-410" edge="1">
          <mxGeometry relative="1" as="geometry" />
        </mxCell>
        <mxCell id="HaJJC9MkkrDI2fJqkNPy-409" value="AutoCast For Inputs" style="html=1;sketch=1;rounded=1;" parent="HaJJC9MkkrDI2fJqkNPy-407" vertex="1">
          <mxGeometry x="75" y="30" width="130" height="30" as="geometry" />
        </mxCell>
        <mxCell id="HaJJC9MkkrDI2fJqkNPy-467" style="edgeStyle=orthogonalEdgeStyle;orthogonalLoop=1;jettySize=auto;html=1;exitX=0.5;exitY=1;exitDx=0;exitDy=0;entryX=0.5;entryY=0;entryDx=0;entryDy=0;sketch=1;curved=1;" parent="HaJJC9MkkrDI2fJqkNPy-407" source="HaJJC9MkkrDI2fJqkNPy-410" target="HaJJC9MkkrDI2fJqkNPy-411" edge="1">
          <mxGeometry relative="1" as="geometry" />
        </mxCell>
        <mxCell id="HaJJC9MkkrDI2fJqkNPy-410" value="SetDeviceId" style="html=1;sketch=1;rounded=1;" parent="HaJJC9MkkrDI2fJqkNPy-407" vertex="1">
          <mxGeometry x="75" y="70" width="130" height="29" as="geometry" />
        </mxCell>
        <mxCell id="HaJJC9MkkrDI2fJqkNPy-468" style="edgeStyle=orthogonalEdgeStyle;orthogonalLoop=1;jettySize=auto;html=1;exitX=0.5;exitY=1;exitDx=0;exitDy=0;entryX=0.5;entryY=0;entryDx=0;entryDy=0;sketch=1;curved=1;" parent="HaJJC9MkkrDI2fJqkNPy-407" source="HaJJC9MkkrDI2fJqkNPy-411" target="HaJJC9MkkrDI2fJqkNPy-412" edge="1">
          <mxGeometry relative="1" as="geometry" />
        </mxCell>
        <mxCell id="HaJJC9MkkrDI2fJqkNPy-411" value="OpInfo::InferVarType" style="html=1;sketch=1;rounded=1;" parent="HaJJC9MkkrDI2fJqkNPy-407" vertex="1">
          <mxGeometry x="75" y="110" width="130" height="30" as="geometry" />
        </mxCell>
        <mxCell id="HaJJC9MkkrDI2fJqkNPy-465" style="edgeStyle=orthogonalEdgeStyle;orthogonalLoop=1;jettySize=auto;html=1;exitX=0.5;exitY=1;exitDx=0;exitDy=0;sketch=1;curved=1;" parent="HaJJC9MkkrDI2fJqkNPy-407" source="HaJJC9MkkrDI2fJqkNPy-412" target="HaJJC9MkkrDI2fJqkNPy-423" edge="1">
          <mxGeometry relative="1" as="geometry" />
        </mxCell>
        <mxCell id="HaJJC9MkkrDI2fJqkNPy-412" value="NewChooseKernel(using DataType/Place)" style="html=1;sketch=1;rounded=1;" parent="HaJJC9MkkrDI2fJqkNPy-407" vertex="1">
          <mxGeometry x="10" y="155" width="260" height="50" as="geometry" />
        </mxCell>
        <mxCell id="HaJJC9MkkrDI2fJqkNPy-462" style="edgeStyle=orthogonalEdgeStyle;orthogonalLoop=1;jettySize=auto;html=1;exitX=0.5;exitY=1;exitDx=0;exitDy=0;entryX=0.5;entryY=0;entryDx=0;entryDy=0;entryPerimeter=0;sketch=1;curved=1;" parent="HaJJC9MkkrDI2fJqkNPy-407" source="HaJJC9MkkrDI2fJqkNPy-423" target="HaJJC9MkkrDI2fJqkNPy-459" edge="1">
          <mxGeometry relative="1" as="geometry" />
        </mxCell>
        <mxCell id="HaJJC9MkkrDI2fJqkNPy-423" value="NewPrepareData(TransformData)" style="html=1;sketch=1;rounded=1;" parent="HaJJC9MkkrDI2fJqkNPy-407" vertex="1">
          <mxGeometry x="10" y="220" width="260" height="50" as="geometry" />
        </mxCell>
        <mxCell id="HaJJC9MkkrDI2fJqkNPy-424" value="RunKernel" style="html=1;sketch=1;rounded=1;" parent="HaJJC9MkkrDI2fJqkNPy-407" vertex="1">
          <mxGeometry x="60" y="428" width="160" height="50" as="geometry" />
        </mxCell>
        <mxCell id="HaJJC9MkkrDI2fJqkNPy-464" style="edgeStyle=orthogonalEdgeStyle;orthogonalLoop=1;jettySize=auto;html=1;exitX=0.5;exitY=1;exitDx=0;exitDy=0;entryX=0.5;entryY=0;entryDx=0;entryDy=0;sketch=1;curved=1;" parent="HaJJC9MkkrDI2fJqkNPy-407" source="HaJJC9MkkrDI2fJqkNPy-426" target="HaJJC9MkkrDI2fJqkNPy-424" edge="1">
          <mxGeometry relative="1" as="geometry" />
        </mxCell>
        <mxCell id="HaJJC9MkkrDI2fJqkNPy-426" value="PrepareBackward" style="html=1;sketch=1;rounded=1;" parent="HaJJC9MkkrDI2fJqkNPy-407" vertex="1">
          <mxGeometry x="70" y="358" width="140" height="50" as="geometry" />
        </mxCell>
        <mxCell id="HaJJC9MkkrDI2fJqkNPy-460" style="edgeStyle=orthogonalEdgeStyle;orthogonalLoop=1;jettySize=auto;html=1;exitX=0.5;exitY=1;exitDx=0;exitDy=0;exitPerimeter=0;entryX=0.5;entryY=0;entryDx=0;entryDy=0;sketch=1;curved=1;" parent="HaJJC9MkkrDI2fJqkNPy-407" source="HaJJC9MkkrDI2fJqkNPy-459" target="HaJJC9MkkrDI2fJqkNPy-426" edge="1">
          <mxGeometry relative="1" as="geometry" />
        </mxCell>
        <mxCell id="HaJJC9MkkrDI2fJqkNPy-505" value="Yes" style="edgeLabel;html=1;align=center;verticalAlign=middle;resizable=0;points=[];sketch=1;rounded=1;" parent="HaJJC9MkkrDI2fJqkNPy-460" vertex="1" connectable="0">
          <mxGeometry x="-0.1" y="2" relative="1" as="geometry">
            <mxPoint as="offset" />
          </mxGeometry>
        </mxCell>
        <mxCell id="HaJJC9MkkrDI2fJqkNPy-463" style="edgeStyle=orthogonalEdgeStyle;orthogonalLoop=1;jettySize=auto;html=1;exitX=0;exitY=0.5;exitDx=0;exitDy=0;exitPerimeter=0;entryX=0;entryY=0.5;entryDx=0;entryDy=0;sketch=1;curved=1;" parent="HaJJC9MkkrDI2fJqkNPy-407" source="HaJJC9MkkrDI2fJqkNPy-459" target="HaJJC9MkkrDI2fJqkNPy-424" edge="1">
          <mxGeometry relative="1" as="geometry">
            <Array as="points">
              <mxPoint x="20" y="313" />
              <mxPoint x="20" y="453" />
            </Array>
          </mxGeometry>
        </mxCell>
        <mxCell id="HaJJC9MkkrDI2fJqkNPy-504" value="No" style="edgeLabel;html=1;align=center;verticalAlign=middle;resizable=0;points=[];sketch=1;rounded=1;" parent="HaJJC9MkkrDI2fJqkNPy-463" vertex="1" connectable="0">
          <mxGeometry x="-0.784" y="1" relative="1" as="geometry">
            <mxPoint as="offset" />
          </mxGeometry>
        </mxCell>
        <mxCell id="HaJJC9MkkrDI2fJqkNPy-459" value="RequireGrad" style="strokeWidth=2;html=1;shape=mxgraph.flowchart.decision;whiteSpace=wrap;sketch=1;rounded=1;" parent="HaJJC9MkkrDI2fJqkNPy-407" vertex="1">
          <mxGeometry x="90" y="288" width="100" height="50" as="geometry" />
        </mxCell>
        <mxCell id="HaJJC9MkkrDI2fJqkNPy-418" value="DispatchMacro" style="html=1;sketch=1;rounded=1;" parent="HaJJC9MkkrDI2fJqkNPy-29" vertex="1">
          <mxGeometry x="1270" y="447" width="180" height="50" as="geometry" />
        </mxCell>
        <mxCell id="HaJJC9MkkrDI2fJqkNPy-420" value="dispatch" style="html=1;verticalAlign=bottom;startArrow=oval;startFill=1;endArrow=block;startSize=8;exitX=1;exitY=0.5;exitDx=0;exitDy=0;entryX=0;entryY=0.5;entryDx=0;entryDy=0;sketch=1;curved=1;" parent="HaJJC9MkkrDI2fJqkNPy-29" source="HaJJC9MkkrDI2fJqkNPy-418" target="HaJJC9MkkrDI2fJqkNPy-419" edge="1">
          <mxGeometry width="60" relative="1" as="geometry">
            <mxPoint x="1430" y="600" as="sourcePoint" />
            <mxPoint x="1490" y="600" as="targetPoint" />
          </mxGeometry>
        </mxCell>
        <mxCell id="HaJJC9MkkrDI2fJqkNPy-451" value="BackwardPrepare" style="swimlane;sketch=1;rounded=1;" parent="HaJJC9MkkrDI2fJqkNPy-29" vertex="1">
          <mxGeometry x="1260" y="578" width="200" height="230" as="geometry" />
        </mxCell>
        <mxCell id="HaJJC9MkkrDI2fJqkNPy-472" style="edgeStyle=orthogonalEdgeStyle;orthogonalLoop=1;jettySize=auto;html=1;exitX=0.5;exitY=1;exitDx=0;exitDy=0;entryX=0.5;entryY=0;entryDx=0;entryDy=0;sketch=1;curved=1;" parent="HaJJC9MkkrDI2fJqkNPy-451" source="HaJJC9MkkrDI2fJqkNPy-452" target="HaJJC9MkkrDI2fJqkNPy-457" edge="1">
          <mxGeometry relative="1" as="geometry" />
        </mxCell>
        <mxCell id="HaJJC9MkkrDI2fJqkNPy-452" value="CreateGradNode" style="html=1;sketch=1;rounded=1;" parent="HaJJC9MkkrDI2fJqkNPy-451" vertex="1">
          <mxGeometry x="30" y="30" width="140" height="30" as="geometry" />
        </mxCell>
        <mxCell id="HaJJC9MkkrDI2fJqkNPy-474" style="edgeStyle=orthogonalEdgeStyle;orthogonalLoop=1;jettySize=auto;html=1;exitX=0.5;exitY=1;exitDx=0;exitDy=0;entryX=0.5;entryY=0;entryDx=0;entryDy=0;sketch=1;curved=1;" parent="HaJJC9MkkrDI2fJqkNPy-451" source="HaJJC9MkkrDI2fJqkNPy-453" target="HaJJC9MkkrDI2fJqkNPy-454" edge="1">
          <mxGeometry relative="1" as="geometry" />
        </mxCell>
        <mxCell id="HaJJC9MkkrDI2fJqkNPy-453" value="SetGradPendingNodes" style="html=1;sketch=1;rounded=1;" parent="HaJJC9MkkrDI2fJqkNPy-451" vertex="1">
          <mxGeometry x="30" y="110" width="140" height="30" as="geometry" />
        </mxCell>
        <mxCell id="HaJJC9MkkrDI2fJqkNPy-475" style="edgeStyle=orthogonalEdgeStyle;orthogonalLoop=1;jettySize=auto;html=1;exitX=0.5;exitY=1;exitDx=0;exitDy=0;entryX=0.5;entryY=0;entryDx=0;entryDy=0;sketch=1;curved=1;" parent="HaJJC9MkkrDI2fJqkNPy-451" source="HaJJC9MkkrDI2fJqkNPy-454" target="HaJJC9MkkrDI2fJqkNPy-458" edge="1">
          <mxGeometry relative="1" as="geometry" />
        </mxCell>
        <mxCell id="HaJJC9MkkrDI2fJqkNPy-454" value="SetGradPendingNodes" style="html=1;sketch=1;rounded=1;" parent="HaJJC9MkkrDI2fJqkNPy-451" vertex="1">
          <mxGeometry x="30" y="150" width="140" height="30" as="geometry" />
        </mxCell>
        <mxCell id="HaJJC9MkkrDI2fJqkNPy-473" style="edgeStyle=orthogonalEdgeStyle;orthogonalLoop=1;jettySize=auto;html=1;exitX=0.5;exitY=1;exitDx=0;exitDy=0;entryX=0.5;entryY=0;entryDx=0;entryDy=0;sketch=1;curved=1;" parent="HaJJC9MkkrDI2fJqkNPy-451" source="HaJJC9MkkrDI2fJqkNPy-457" target="HaJJC9MkkrDI2fJqkNPy-453" edge="1">
          <mxGeometry relative="1" as="geometry" />
        </mxCell>
        <mxCell id="HaJJC9MkkrDI2fJqkNPy-457" value="&amp;nbsp;SetGradNode" style="html=1;sketch=1;rounded=1;" parent="HaJJC9MkkrDI2fJqkNPy-451" vertex="1">
          <mxGeometry x="30" y="70" width="140" height="30" as="geometry" />
        </mxCell>
        <mxCell id="HaJJC9MkkrDI2fJqkNPy-458" value="BindGradNodeOnOutput" style="html=1;sketch=1;rounded=1;" parent="HaJJC9MkkrDI2fJqkNPy-451" vertex="1">
          <mxGeometry x="30" y="190" width="140" height="30" as="geometry" />
        </mxCell>
        <mxCell id="HaJJC9MkkrDI2fJqkNPy-470" value="dispatch" style="html=1;verticalAlign=bottom;startArrow=oval;startFill=1;endArrow=block;startSize=8;exitX=1;exitY=0.5;exitDx=0;exitDy=0;entryX=0;entryY=0.5;entryDx=0;entryDy=0;sketch=1;curved=1;" parent="HaJJC9MkkrDI2fJqkNPy-29" source="HaJJC9MkkrDI2fJqkNPy-426" target="HaJJC9MkkrDI2fJqkNPy-451" edge="1">
          <mxGeometry width="60" relative="1" as="geometry">
            <mxPoint x="1200" y="680" as="sourcePoint" />
            <mxPoint x="1260" y="680" as="targetPoint" />
            <Array as="points">
              <mxPoint x="1180" y="693" />
            </Array>
          </mxGeometry>
        </mxCell>
        <mxCell id="HaJJC9MkkrDI2fJqkNPy-471" value="Use" style="endArrow=open;endSize=12;dashed=1;html=1;exitX=1;exitY=0.5;exitDx=0;exitDy=0;entryX=0;entryY=0.5;entryDx=0;entryDy=0;sketch=1;curved=1;" parent="HaJJC9MkkrDI2fJqkNPy-29" source="HaJJC9MkkrDI2fJqkNPy-412" target="HaJJC9MkkrDI2fJqkNPy-418" edge="1">
          <mxGeometry width="160" relative="1" as="geometry">
            <mxPoint x="1230" y="360" as="sourcePoint" />
            <mxPoint x="1390" y="360" as="targetPoint" />
          </mxGeometry>
        </mxCell>
        <mxCell id="HaJJC9MkkrDI2fJqkNPy-419" value="KernelFunction" style="html=1;sketch=1;rounded=1;" parent="HaJJC9MkkrDI2fJqkNPy-29" vertex="1">
          <mxGeometry x="1560" y="395" width="240" height="150" as="geometry" />
        </mxCell>
        <mxCell id="HaJJC9MkkrDI2fJqkNPy-421" value="KernelFunction" style="html=1;sketch=1;rounded=1;" parent="HaJJC9MkkrDI2fJqkNPy-29" vertex="1">
          <mxGeometry x="1570" y="405" width="240" height="150" as="geometry" />
        </mxCell>
        <mxCell id="HaJJC9MkkrDI2fJqkNPy-422" value="KernelFunction" style="html=1;sketch=1;rounded=1;" parent="HaJJC9MkkrDI2fJqkNPy-29" vertex="1">
          <mxGeometry x="1580" y="415" width="240" height="150" as="geometry" />
        </mxCell>
        <mxCell id="HaJJC9MkkrDI2fJqkNPy-480" value="xxxGradNode" style="swimlane;fontStyle=1;align=center;verticalAlign=top;childLayout=stackLayout;horizontal=1;startSize=26;horizontalStack=0;resizeParent=1;resizeParentMax=0;resizeLast=0;collapsible=1;marginBottom=0;sketch=1;rounded=1;" parent="HaJJC9MkkrDI2fJqkNPy-29" vertex="1">
          <mxGeometry x="1580" y="584" width="260" height="138" as="geometry" />
        </mxCell>
        <mxCell id="HaJJC9MkkrDI2fJqkNPy-481" value="+ input0_: TensorWrapper" style="text;strokeColor=none;fillColor=none;align=left;verticalAlign=top;spacingLeft=4;spacingRight=4;overflow=hidden;rotatable=0;points=[[0,0.5],[1,0.5]];portConstraint=eastwest;sketch=1;rounded=1;" parent="HaJJC9MkkrDI2fJqkNPy-480" vertex="1">
          <mxGeometry y="26" width="260" height="26" as="geometry" />
        </mxCell>
        <mxCell id="HaJJC9MkkrDI2fJqkNPy-484" value="+ input1_: TensorWrapper" style="text;strokeColor=none;fillColor=none;align=left;verticalAlign=top;spacingLeft=4;spacingRight=4;overflow=hidden;rotatable=0;points=[[0,0.5],[1,0.5]];portConstraint=eastwest;sketch=1;rounded=1;" parent="HaJJC9MkkrDI2fJqkNPy-480" vertex="1">
          <mxGeometry y="52" width="260" height="26" as="geometry" />
        </mxCell>
        <mxCell id="HaJJC9MkkrDI2fJqkNPy-492" value="+ ..." style="text;strokeColor=none;fillColor=none;align=left;verticalAlign=top;spacingLeft=4;spacingRight=4;overflow=hidden;rotatable=0;points=[[0,0.5],[1,0.5]];portConstraint=eastwest;sketch=1;rounded=1;" parent="HaJJC9MkkrDI2fJqkNPy-480" vertex="1">
          <mxGeometry y="78" width="260" height="26" as="geometry" />
        </mxCell>
        <mxCell id="HaJJC9MkkrDI2fJqkNPy-482" value="" style="line;strokeWidth=1;fillColor=none;align=left;verticalAlign=middle;spacingTop=-1;spacingLeft=3;spacingRight=3;rotatable=0;labelPosition=right;points=[];portConstraint=eastwest;sketch=1;rounded=1;" parent="HaJJC9MkkrDI2fJqkNPy-480" vertex="1">
          <mxGeometry y="104" width="260" height="8" as="geometry" />
        </mxCell>
        <mxCell id="HaJJC9MkkrDI2fJqkNPy-483" value="+ apply(Tensor): std::vector&lt;Tensor&gt;() grads_" style="text;strokeColor=none;fillColor=none;align=left;verticalAlign=top;spacingLeft=4;spacingRight=4;overflow=hidden;rotatable=0;points=[[0,0.5],[1,0.5]];portConstraint=eastwest;sketch=1;rounded=1;" parent="HaJJC9MkkrDI2fJqkNPy-480" vertex="1">
          <mxGeometry y="112" width="260" height="26" as="geometry" />
        </mxCell>
        <mxCell id="HaJJC9MkkrDI2fJqkNPy-485" value="GradNodeBase" style="swimlane;fontStyle=1;align=center;verticalAlign=top;childLayout=stackLayout;horizontal=1;startSize=26;horizontalStack=0;resizeParent=1;resizeParentMax=0;resizeLast=0;collapsible=1;marginBottom=0;sketch=1;rounded=1;" parent="HaJJC9MkkrDI2fJqkNPy-29" vertex="1">
          <mxGeometry x="1535" y="810" width="330" height="112" as="geometry" />
        </mxCell>
        <mxCell id="HaJJC9MkkrDI2fJqkNPy-486" value="+ Inplace_map_" style="text;strokeColor=none;fillColor=none;align=left;verticalAlign=top;spacingLeft=4;spacingRight=4;overflow=hidden;rotatable=0;points=[[0,0.5],[1,0.5]];portConstraint=eastwest;sketch=1;rounded=1;" parent="HaJJC9MkkrDI2fJqkNPy-485" vertex="1">
          <mxGeometry y="26" width="330" height="26" as="geometry" />
        </mxCell>
        <mxCell id="HaJJC9MkkrDI2fJqkNPy-487" value="+ next_edges_: std::vector&lt;Edge&gt;" style="text;strokeColor=none;fillColor=none;align=left;verticalAlign=top;spacingLeft=4;spacingRight=4;overflow=hidden;rotatable=0;points=[[0,0.5],[1,0.5]];portConstraint=eastwest;sketch=1;rounded=1;" parent="HaJJC9MkkrDI2fJqkNPy-485" vertex="1">
          <mxGeometry y="52" width="330" height="26" as="geometry" />
        </mxCell>
        <mxCell id="HaJJC9MkkrDI2fJqkNPy-488" value="" style="line;strokeWidth=1;fillColor=none;align=left;verticalAlign=middle;spacingTop=-1;spacingLeft=3;spacingRight=3;rotatable=0;labelPosition=right;points=[];portConstraint=eastwest;sketch=1;rounded=1;" parent="HaJJC9MkkrDI2fJqkNPy-485" vertex="1">
          <mxGeometry y="78" width="330" height="8" as="geometry" />
        </mxCell>
        <mxCell id="HaJJC9MkkrDI2fJqkNPy-489" value="+ HelperFunctions ..." style="text;strokeColor=none;fillColor=none;align=left;verticalAlign=top;spacingLeft=4;spacingRight=4;overflow=hidden;rotatable=0;points=[[0,0.5],[1,0.5]];portConstraint=eastwest;sketch=1;rounded=1;" parent="HaJJC9MkkrDI2fJqkNPy-485" vertex="1">
          <mxGeometry y="86" width="330" height="26" as="geometry" />
        </mxCell>
        <mxCell id="HaJJC9MkkrDI2fJqkNPy-491" value="dispatch" style="html=1;verticalAlign=bottom;startArrow=oval;startFill=1;endArrow=block;startSize=8;exitX=1;exitY=0.5;exitDx=0;exitDy=0;entryX=1;entryY=0.75;entryDx=0;entryDy=0;sketch=1;curved=1;" parent="HaJJC9MkkrDI2fJqkNPy-29" source="HaJJC9MkkrDI2fJqkNPy-483" target="HaJJC9MkkrDI2fJqkNPy-422" edge="1">
          <mxGeometry width="60" relative="1" as="geometry">
            <mxPoint x="1810" y="710" as="sourcePoint" />
            <mxPoint x="1870" y="710" as="targetPoint" />
            <Array as="points">
              <mxPoint x="1910" y="709" />
              <mxPoint x="1910" y="528" />
            </Array>
          </mxGeometry>
        </mxCell>
        <mxCell id="HaJJC9MkkrDI2fJqkNPy-497" style="edgeStyle=orthogonalEdgeStyle;orthogonalLoop=1;jettySize=auto;html=1;exitX=1;exitY=0.5;exitDx=0;exitDy=0;entryX=0;entryY=0.5;entryDx=0;entryDy=0;sketch=1;curved=1;" parent="HaJJC9MkkrDI2fJqkNPy-29" source="HaJJC9MkkrDI2fJqkNPy-452" target="HaJJC9MkkrDI2fJqkNPy-481" edge="1">
          <mxGeometry relative="1" as="geometry" />
        </mxCell>
        <mxCell id="HaJJC9MkkrDI2fJqkNPy-502" value="Extends" style="endArrow=block;endSize=16;endFill=0;html=1;exitX=0.5;exitY=0;exitDx=0;exitDy=0;entryX=0.462;entryY=1.115;entryDx=0;entryDy=0;entryPerimeter=0;sketch=1;curved=1;" parent="HaJJC9MkkrDI2fJqkNPy-29" source="HaJJC9MkkrDI2fJqkNPy-485" target="HaJJC9MkkrDI2fJqkNPy-483" edge="1">
          <mxGeometry width="160" relative="1" as="geometry">
            <mxPoint x="1720" y="770" as="sourcePoint" />
            <mxPoint x="1880" y="770" as="targetPoint" />
          </mxGeometry>
        </mxCell>
        <mxCell id="HaJJC9MkkrDI2fJqkNPy-503" style="edgeStyle=orthogonalEdgeStyle;orthogonalLoop=1;jettySize=auto;html=1;exitX=1;exitY=0.5;exitDx=0;exitDy=0;entryX=0;entryY=0.5;entryDx=0;entryDy=0;sketch=1;curved=1;" parent="HaJJC9MkkrDI2fJqkNPy-29" source="HaJJC9MkkrDI2fJqkNPy-453" target="HaJJC9MkkrDI2fJqkNPy-487" edge="1">
          <mxGeometry relative="1" as="geometry">
            <mxPoint x="1480" y="730" as="targetPoint" />
            <Array as="points">
              <mxPoint x="1480" y="685" />
              <mxPoint x="1480" y="875" />
            </Array>
          </mxGeometry>
        </mxCell>
        <mxCell id="HaJJC9MkkrDI2fJqkNPy-496" style="edgeStyle=orthogonalEdgeStyle;orthogonalLoop=1;jettySize=auto;html=1;exitX=1;exitY=0.5;exitDx=0;exitDy=0;entryX=0;entryY=0.5;entryDx=0;entryDy=0;sketch=1;curved=1;" parent="HaJJC9MkkrDI2fJqkNPy-29" source="HaJJC9MkkrDI2fJqkNPy-454" target="HaJJC9MkkrDI2fJqkNPy-489" edge="1">
          <mxGeometry relative="1" as="geometry">
            <mxPoint x="1530" y="910" as="targetPoint" />
            <Array as="points">
              <mxPoint x="1480" y="725" />
              <mxPoint x="1480" y="910" />
            </Array>
          </mxGeometry>
        </mxCell>
        <mxCell id="HaJJC9MkkrDI2fJqkNPy-508" value="Inplace" style="html=1;sketch=1;rounded=1;" parent="HaJJC9MkkrDI2fJqkNPy-29" vertex="1">
          <mxGeometry x="2010" y="350" width="150" height="55" as="geometry" />
        </mxCell>
        <mxCell id="HaJJC9MkkrDI2fJqkNPy-509" value="Cross Batch Accumulate" style="html=1;sketch=1;rounded=1;" parent="HaJJC9MkkrDI2fJqkNPy-29" vertex="1">
          <mxGeometry x="2010" y="430" width="150" height="50" as="geometry" />
        </mxCell>
        <mxCell id="HaJJC9MkkrDI2fJqkNPy-510" value="DoubleGrad" style="html=1;sketch=1;rounded=1;" parent="HaJJC9MkkrDI2fJqkNPy-29" vertex="1">
          <mxGeometry x="2010" y="505" width="150" height="50" as="geometry" />
        </mxCell>
        <mxCell id="HaJJC9MkkrDI2fJqkNPy-511" value="BackwardHook" style="html=1;sketch=1;rounded=1;" parent="HaJJC9MkkrDI2fJqkNPy-29" vertex="1">
          <mxGeometry x="2010" y="578" width="150" height="50" as="geometry" />
        </mxCell>
        <mxCell id="HaJJC9MkkrDI2fJqkNPy-514" value="Control" style="edgeStyle=orthogonalEdgeStyle;orthogonalLoop=1;jettySize=auto;html=1;exitX=0;exitY=0.25;exitDx=0;exitDy=0;entryX=1;entryY=0.25;entryDx=0;entryDy=0;sketch=1;curved=1;" parent="HaJJC9MkkrDI2fJqkNPy-29" source="HaJJC9MkkrDI2fJqkNPy-512" target="HaJJC9MkkrDI2fJqkNPy-407" edge="1">
          <mxGeometry relative="1" as="geometry">
            <Array as="points">
              <mxPoint x="1985" y="360" />
              <mxPoint x="1490" y="360" />
              <mxPoint x="1490" y="415" />
            </Array>
          </mxGeometry>
        </mxCell>
        <mxCell id="HaJJC9MkkrDI2fJqkNPy-515" value="Control" style="edgeStyle=orthogonalEdgeStyle;orthogonalLoop=1;jettySize=auto;html=1;exitX=0.5;exitY=1;exitDx=0;exitDy=0;entryX=1;entryY=0.5;entryDx=0;entryDy=0;sketch=1;curved=1;" parent="HaJJC9MkkrDI2fJqkNPy-29" source="HaJJC9MkkrDI2fJqkNPy-512" target="HaJJC9MkkrDI2fJqkNPy-487" edge="1">
          <mxGeometry relative="1" as="geometry" />
        </mxCell>
        <mxCell id="HaJJC9MkkrDI2fJqkNPy-512" value="GraphManipulator" style="swimlane;sketch=1;rounded=1;" parent="HaJJC9MkkrDI2fJqkNPy-29" vertex="1">
          <mxGeometry x="1985" y="310" width="200" height="340" as="geometry" />
        </mxCell>
        <mxCell id="wPeZKUdh03e-PlZfuQYW-7" value="Edge" style="swimlane;fontStyle=1;align=center;verticalAlign=top;childLayout=stackLayout;horizontal=1;startSize=26;horizontalStack=0;resizeParent=1;resizeParentMax=0;resizeLast=0;collapsible=1;marginBottom=0;sketch=1;rounded=1;fillColor=#21C0A5;strokeColor=#006658;fontColor=#5C5C5C;" vertex="1" parent="HaJJC9MkkrDI2fJqkNPy-29">
          <mxGeometry x="1905" y="710" width="280" height="112" as="geometry" />
        </mxCell>
        <mxCell id="wPeZKUdh03e-PlZfuQYW-8" value="+ grad_node_: shared_ptr&lt;GradNodeBase&gt;" style="text;strokeColor=none;fillColor=none;align=left;verticalAlign=top;spacingLeft=4;spacingRight=4;overflow=hidden;rotatable=0;points=[[0,0.5],[1,0.5]];portConstraint=eastwest;sketch=1;rounded=1;fontColor=#5C5C5C;" vertex="1" parent="wPeZKUdh03e-PlZfuQYW-7">
          <mxGeometry y="26" width="280" height="26" as="geometry" />
        </mxCell>
        <mxCell id="wPeZKUdh03e-PlZfuQYW-9" value="+ input_rank_: size_t " style="text;strokeColor=none;fillColor=none;align=left;verticalAlign=top;spacingLeft=4;spacingRight=4;overflow=hidden;rotatable=0;points=[[0,0.5],[1,0.5]];portConstraint=eastwest;sketch=1;rounded=1;fontColor=#5C5C5C;" vertex="1" parent="wPeZKUdh03e-PlZfuQYW-7">
          <mxGeometry y="52" width="280" height="26" as="geometry" />
        </mxCell>
        <mxCell id="wPeZKUdh03e-PlZfuQYW-10" value="" style="line;strokeWidth=1;fillColor=none;align=left;verticalAlign=middle;spacingTop=-1;spacingLeft=3;spacingRight=3;rotatable=0;labelPosition=right;points=[];portConstraint=eastwest;sketch=1;rounded=1;strokeColor=#006658;fontColor=#5C5C5C;" vertex="1" parent="wPeZKUdh03e-PlZfuQYW-7">
          <mxGeometry y="78" width="280" height="8" as="geometry" />
        </mxCell>
        <mxCell id="wPeZKUdh03e-PlZfuQYW-11" value="+ Setter/Getters" style="text;strokeColor=none;fillColor=none;align=left;verticalAlign=top;spacingLeft=4;spacingRight=4;overflow=hidden;rotatable=0;points=[[0,0.5],[1,0.5]];portConstraint=eastwest;sketch=1;rounded=1;fontColor=#5C5C5C;" vertex="1" parent="wPeZKUdh03e-PlZfuQYW-7">
          <mxGeometry y="86" width="280" height="26" as="geometry" />
        </mxCell>
        <mxCell id="wPeZKUdh03e-PlZfuQYW-12" value="" style="endArrow=diamondThin;endFill=1;endSize=24;html=1;fontColor=#5C5C5C;strokeColor=#006658;fillColor=#21C0A5;entryX=0;entryY=0.5;entryDx=0;entryDy=0;exitX=1;exitY=0.5;exitDx=0;exitDy=0;" edge="1" parent="HaJJC9MkkrDI2fJqkNPy-29" target="wPeZKUdh03e-PlZfuQYW-7" source="HaJJC9MkkrDI2fJqkNPy-486">
          <mxGeometry width="160" relative="1" as="geometry">
            <mxPoint x="1860" y="880" as="sourcePoint" />
            <mxPoint x="1930" y="782" as="targetPoint" />
          </mxGeometry>
        </mxCell>
        <mxCell id="HaJJC9MkkrDI2fJqkNPy-185" style="edgeStyle=orthogonalEdgeStyle;orthogonalLoop=1;jettySize=auto;html=1;exitX=0;exitY=0;exitDx=70;exitDy=32;exitPerimeter=0;entryX=0.5;entryY=0;entryDx=0;entryDy=0;sketch=1;curved=1;" parent="1" source="HaJJC9MkkrDI2fJqkNPy-16" target="HaJJC9MkkrDI2fJqkNPy-51" edge="1">
          <mxGeometry relative="1" as="geometry">
            <mxPoint x="880" y="185" as="targetPoint" />
            <Array as="points">
              <mxPoint x="770" y="162" />
              <mxPoint x="770" y="80" />
              <mxPoint x="2110" y="80" />
            </Array>
          </mxGeometry>
        </mxCell>
        <mxCell id="HaJJC9MkkrDI2fJqkNPy-379" style="edgeStyle=orthogonalEdgeStyle;orthogonalLoop=1;jettySize=auto;html=1;exitX=0;exitY=0;exitDx=172.5;exitDy=41;exitPerimeter=0;entryX=0;entryY=0;entryDx=0;entryDy=32;entryPerimeter=0;sketch=1;curved=1;" parent="1" source="HaJJC9MkkrDI2fJqkNPy-12" target="HaJJC9MkkrDI2fJqkNPy-18" edge="1">
          <mxGeometry relative="1" as="geometry" />
        </mxCell>
        <mxCell id="HaJJC9MkkrDI2fJqkNPy-382" style="edgeStyle=orthogonalEdgeStyle;orthogonalLoop=1;jettySize=auto;html=1;exitX=0;exitY=0;exitDx=150;exitDy=32;exitPerimeter=0;entryX=0;entryY=0.5;entryDx=0;entryDy=0;sketch=1;curved=1;" parent="1" source="HaJJC9MkkrDI2fJqkNPy-18" target="HaJJC9MkkrDI2fJqkNPy-445" edge="1">
          <mxGeometry relative="1" as="geometry">
            <mxPoint x="1370" y="415" as="targetPoint" />
          </mxGeometry>
        </mxCell>
        <mxCell id="HaJJC9MkkrDI2fJqkNPy-446" value="Api related Unique WrapperCode" style="html=1;sketch=1;rounded=1;" parent="1" vertex="1">
          <mxGeometry x="1330" y="430" width="200" height="50" as="geometry" />
        </mxCell>
        <mxCell id="HaJJC9MkkrDI2fJqkNPy-447" value="Api related Unique WrapperCode" style="html=1;sketch=1;rounded=1;" parent="1" vertex="1">
          <mxGeometry x="1340" y="440" width="200" height="50" as="geometry" />
        </mxCell>
        <mxCell id="HaJJC9MkkrDI2fJqkNPy-448" value="Api related Unique WrapperCode" style="html=1;sketch=1;rounded=1;" parent="1" vertex="1">
          <mxGeometry x="1350" y="450" width="200" height="50" as="geometry" />
        </mxCell>
        <mxCell id="HaJJC9MkkrDI2fJqkNPy-450" style="edgeStyle=orthogonalEdgeStyle;orthogonalLoop=1;jettySize=auto;html=1;exitX=1;exitY=0.5;exitDx=0;exitDy=0;entryX=0;entryY=0.25;entryDx=0;entryDy=0;sketch=1;curved=1;" parent="1" source="HaJJC9MkkrDI2fJqkNPy-449" target="HaJJC9MkkrDI2fJqkNPy-407" edge="1">
          <mxGeometry relative="1" as="geometry" />
        </mxCell>
        <mxCell id="HaJJC9MkkrDI2fJqkNPy-449" value="Api related Unique WrapperCode" style="html=1;sketch=1;rounded=1;" parent="1" vertex="1">
          <mxGeometry x="1360" y="460" width="200" height="50" as="geometry" />
        </mxCell>
      </root>
    </mxGraphModel>
  </diagram>
</mxfile>
